{"glyphs":{"0":{"ha":906,"x_min":63,"x_max":843,"o":"m 63 521 q 155 897 63 760 q 453 1035 247 1035 l 453 1035 q 751 897 658 1035 q 843 521 843 760 l 843 521 q 751 142 843 279 q 453 4 658 4 l 453 4 q 155 142 247 4 q 63 521 63 279 l 63 521 z m 610 521 q 579 737 610 661 q 453 813 549 813 l 453 813 q 326 737 357 813 q 296 521 296 661 l 296 521 q 307 365 296 426 q 352 265 318 303 q 453 226 386 226 l 453 226 q 553 265 519 226 q 599 365 588 303 q 610 521 610 426 l 610 521 z "},"1":{"ha":522,"x_min":38,"x_max":422,"o":"m 175 793 l 38 793 l 38 1014 l 422 1014 l 422 0 l 175 0 l 175 793 z "},"2":{"ha":793,"x_min":51,"x_max":751,"o":"m 54 190 q 97 225 101 228 l 97 225 q 312 410 233 338 q 444 561 390 482 q 499 715 499 640 l 499 715 q 472 804 499 772 q 393 836 446 836 l 393 836 q 310 797 340 836 q 281 685 281 757 l 281 685 l 51 685 q 102 882 54 803 q 228 999 150 961 q 403 1036 307 1036 l 403 1036 q 652 951 568 1036 q 736 731 736 867 l 736 731 q 635 455 736 582 q 376 207 533 328 l 376 207 l 751 207 l 751 14 l 54 14 l 54 190 z "},"3":{"ha":840,"x_min":58,"x_max":764,"o":"m 71 728 q 168 957 76 876 q 417 1038 260 1038 l 417 1038 q 595 1001 521 1038 q 708 903 669 965 q 746 763 746 840 l 746 763 q 700 613 746 671 q 593 535 654 556 l 593 535 l 593 529 q 718 442 672 503 q 764 285 764 381 l 764 285 q 724 133 764 199 q 609 29 685 67 q 429 -8 533 -8 l 429 -8 q 163 74 263 -8 q 58 321 64 156 l 58 321 l 289 321 q 324 224 290 260 q 421 189 357 189 l 421 189 q 505 220 475 189 q 535 303 535 251 l 535 303 q 492 399 535 369 q 357 429 450 429 l 357 429 l 313 429 l 313 622 l 357 622 q 472 647 428 622 q 515 733 515 671 l 515 733 q 488 811 515 783 q 411 839 460 839 l 411 839 q 333 807 358 839 q 303 728 307 775 l 303 728 l 71 728 z "},"4":{"ha":940,"x_min":68,"x_max":886,"o":"m 535 181 l 68 181 l 68 372 l 507 1000 l 772 1000 l 772 386 l 886 386 l 886 181 l 772 181 l 772 0 l 535 0 l 535 181 z m 551 386 l 551 739 l 318 386 l 551 386 z "},"5":{"ha":903,"x_min":117,"x_max":835,"o":"m 776 1015 l 776 807 l 343 807 l 343 615 q 421 665 371 646 q 529 685 471 685 l 529 685 q 702 638 633 685 q 803 515 771 590 q 835 353 835 440 l 835 353 q 743 95 835 190 q 485 0 651 0 l 485 0 q 292 38 374 0 q 165 144 210 76 q 117 301 121 213 l 117 301 l 349 301 q 389 230 357 258 q 476 201 421 201 l 476 201 q 574 243 542 201 q 606 354 606 285 l 606 354 q 572 458 606 422 q 475 494 539 494 l 475 494 q 397 472 428 494 q 357 411 367 449 l 357 411 l 128 411 l 128 1015 l 776 1015 z "},"6":{"ha":885,"x_min":86,"x_max":813,"o":"m 564 740 q 525 817 553 792 q 446 843 497 843 l 446 843 q 332 774 367 843 q 296 557 297 706 l 296 557 q 384 633 326 606 q 511 661 442 661 l 511 661 q 730 575 647 661 q 813 335 813 489 l 813 335 q 772 157 813 233 q 652 38 731 81 q 467 -6 574 -6 l 467 -6 q 169 128 253 -6 q 86 514 86 263 l 86 514 q 174 906 86 778 q 457 1035 263 1035 l 457 1035 q 633 994 561 1035 q 741 886 704 953 q 785 740 778 819 l 785 740 l 564 740 z m 454 474 q 355 438 394 474 q 315 338 315 403 l 315 338 q 352 233 315 271 q 457 196 389 196 l 457 196 q 553 233 518 196 q 589 333 589 269 l 589 333 q 554 436 589 399 q 454 474 519 474 l 454 474 z "},"7":{"ha":743,"x_min":39,"x_max":710,"o":"m 710 1013 l 710 836 l 361 0 l 118 0 l 471 810 l 39 810 l 39 1013 l 710 1013 z "},"8":{"ha":900,"x_min":75,"x_max":825,"o":"m 229 544 q 99 763 99 614 l 99 763 q 138 899 99 838 q 256 998 176 961 q 450 1035 335 1035 l 450 1035 q 644 998 565 1035 q 761 899 722 961 q 800 763 800 838 l 800 763 q 765 632 800 688 q 669 544 729 576 l 669 544 q 785 445 744 508 q 825 297 825 382 l 825 297 q 775 127 825 199 q 640 18 725 56 q 450 -19 554 -19 l 450 -19 q 260 18 346 -19 q 125 127 175 56 q 75 297 75 199 l 75 297 q 115 447 75 383 q 229 544 156 510 l 229 544 z m 569 726 q 537 815 569 783 q 450 846 504 846 l 450 846 q 363 814 396 846 q 331 725 331 782 l 331 725 q 364 640 331 671 q 450 608 397 608 l 450 608 q 536 640 503 608 q 569 726 569 672 l 569 726 z m 450 442 q 344 406 385 442 q 304 308 304 371 l 304 308 q 344 213 304 250 q 450 175 383 175 l 450 175 q 555 213 517 175 q 593 308 593 250 l 593 308 q 553 406 593 369 q 450 442 514 442 l 450 442 z "},"9":{"ha":854,"x_min":72,"x_max":790,"o":"m 318 297 q 446 188 339 188 l 446 188 q 550 253 519 188 q 581 465 581 318 l 581 465 q 497 399 550 422 q 379 375 444 375 l 379 375 q 221 412 290 375 q 112 522 151 449 q 72 699 72 594 l 72 699 q 115 878 72 801 q 235 996 157 954 q 421 1038 314 1038 l 421 1038 q 708 910 626 1038 q 790 533 790 782 l 790 533 q 758 235 790 353 q 648 57 725 118 q 438 -4 571 -4 l 438 -4 q 258 38 332 -4 q 144 147 183 79 q 99 297 104 215 l 99 297 l 318 297 z m 433 563 q 526 598 492 563 q 561 694 561 633 l 561 694 q 525 797 561 761 q 428 833 489 833 l 428 833 q 331 797 367 833 q 296 696 296 760 l 296 696 q 331 599 296 636 q 433 563 367 563 l 433 563 z "},"A":{"ha":1024,"x_min":22,"x_max":1003,"o":"m 751 0 l 693 172 l 329 172 l 271 0 l 22 0 l 375 975 l 650 975 l 1003 0 l 751 0 z m 392 356 l 632 356 l 511 713 l 392 356 z "},"B":{"ha":915,"x_min":86,"x_max":864,"o":"m 676 500 q 813 416 761 482 q 864 265 864 350 l 864 265 q 778 72 864 143 q 540 0 693 0 l 540 0 l 86 0 l 86 975 l 525 975 q 758 907 674 975 q 842 722 842 839 l 842 722 q 797 579 842 636 q 676 500 751 522 l 676 500 z m 324 785 l 324 581 l 479 581 q 569 606 538 581 q 600 682 600 632 l 600 682 q 569 758 600 732 q 479 785 538 785 l 479 785 l 324 785 z m 499 192 q 591 219 558 192 q 624 297 624 246 l 624 297 q 590 378 624 349 q 496 407 556 407 l 496 407 l 324 407 l 324 192 l 499 192 z "},"C":{"ha":1058,"x_min":46,"x_max":999,"o":"m 46 489 q 108 747 46 633 q 283 923 171 860 q 536 986 394 986 l 536 986 q 833 894 710 986 q 999 644 957 803 l 999 644 l 738 644 q 655 738 708 706 q 533 769 601 769 l 533 769 q 356 693 424 769 q 288 489 288 617 l 288 489 q 356 285 288 361 q 533 208 424 208 l 533 208 q 655 240 601 208 q 738 333 708 272 l 738 333 l 999 333 q 833 84 957 175 q 536 -7 710 -7 l 536 -7 q 283 56 394 -7 q 108 232 171 119 q 46 489 46 344 l 46 489 z "},"D":{"ha":1010,"x_min":86,"x_max":963,"o":"m 451 975 q 721 914 606 975 q 899 742 836 853 q 963 488 963 632 l 963 488 q 899 233 963 344 q 720 61 836 122 q 451 0 604 0 l 451 0 l 86 0 l 86 975 l 451 975 z m 436 206 q 646 279 571 206 q 721 488 721 353 l 721 488 q 646 697 721 622 q 436 772 571 772 l 436 772 l 324 772 l 324 206 l 436 206 z "},"E":{"ha":751,"x_min":86,"x_max":683,"o":"m 683 785 l 324 785 l 324 588 l 642 588 l 642 404 l 324 404 l 324 190 l 683 190 l 683 0 l 86 0 l 86 975 l 683 975 l 683 785 z "},"F":{"ha":760,"x_min":86,"x_max":721,"o":"m 86 975 l 721 975 l 721 785 l 324 785 l 324 579 l 621 579 l 621 394 l 324 394 l 324 0 l 86 0 l 86 975 z "},"G":{"ha":1058,"x_min":46,"x_max":1013,"o":"m 996 667 l 733 667 q 658 741 707 715 q 542 767 608 767 l 542 767 q 357 691 426 767 q 288 489 288 615 l 288 489 q 360 278 288 354 q 561 203 433 203 l 561 203 q 709 247 649 203 q 797 375 769 292 l 797 375 l 496 375 l 496 550 l 1013 550 l 1013 329 q 923 164 986 240 q 763 40 860 88 q 543 -7 665 -7 l 543 -7 q 285 56 399 -7 q 109 232 172 119 q 46 489 46 344 l 46 489 q 109 747 46 633 q 285 923 172 860 q 542 986 397 986 l 542 986 q 837 901 717 986 q 996 667 957 817 l 996 667 z "},"H":{"ha":1015,"x_min":86,"x_max":931,"o":"m 693 975 l 931 975 l 931 0 l 693 0 l 693 401 l 324 401 l 324 0 l 86 0 l 86 975 l 324 975 l 324 593 l 693 593 l 693 975 z "},"I":{"ha":410,"x_min":86,"x_max":324,"o":"m 86 975 l 324 975 l 324 0 l 86 0 l 86 975 z "},"J":{"ha":803,"x_min":36,"x_max":697,"o":"m 460 975 l 697 975 l 697 311 q 610 74 697 157 q 376 -10 524 -10 l 376 -10 q 129 78 222 -10 q 36 326 36 165 l 36 326 l 272 326 q 297 234 272 265 q 369 203 322 203 l 369 203 q 436 231 413 203 q 460 311 460 258 l 460 311 l 460 975 z "},"K":{"ha":968,"x_min":86,"x_max":942,"o":"m 942 0 l 651 0 l 324 431 l 324 0 l 86 0 l 86 975 l 324 975 l 324 547 l 649 975 l 928 975 l 550 497 l 942 0 z "},"L":{"ha":663,"x_min":86,"x_max":635,"o":"m 324 975 l 324 183 l 635 183 l 635 0 l 86 0 l 86 975 l 324 975 z "},"M":{"ha":1275,"x_min":86,"x_max":1190,"o":"m 911 975 l 1190 975 l 1190 0 l 953 0 l 953 585 l 735 0 l 543 0 l 324 586 l 324 0 l 86 0 l 86 975 l 367 975 l 640 300 l 911 975 z "},"N":{"ha":1044,"x_min":86,"x_max":958,"o":"m 958 975 l 958 0 l 721 0 l 324 601 l 324 0 l 86 0 l 86 975 l 324 975 l 721 371 l 721 975 l 958 975 z "},"O":{"ha":1092,"x_min":46,"x_max":1046,"o":"m 547 -10 q 295 54 410 -10 q 113 233 181 118 q 46 490 46 347 l 46 490 q 113 747 46 633 q 295 925 181 861 q 547 989 410 989 l 547 989 q 799 925 685 989 q 980 747 914 861 q 1046 490 1046 633 l 1046 490 q 979 233 1046 347 q 799 54 913 118 q 547 -10 685 -10 l 547 -10 z m 547 207 q 734 285 664 207 q 804 490 804 363 l 804 490 q 734 697 804 619 q 547 774 664 774 l 547 774 q 359 697 429 774 q 289 490 289 621 l 289 490 q 359 284 289 361 q 547 207 429 207 l 547 207 z "},"P":{"ha":867,"x_min":86,"x_max":829,"o":"m 829 661 q 790 506 829 576 q 671 393 751 436 q 471 350 590 350 l 471 350 l 324 350 l 324 0 l 86 0 l 86 975 l 471 975 q 668 935 588 975 q 789 824 749 894 q 829 661 829 753 l 829 661 z m 453 539 q 554 571 521 539 q 588 661 588 603 l 588 661 q 554 751 588 719 q 453 783 521 783 l 453 783 l 324 783 l 324 539 l 453 539 z "},"Q":{"ha":1094,"x_min":46,"x_max":1068,"o":"m 1068 -167 l 781 -167 l 656 1 q 547 -10 600 -10 l 547 -10 q 295 54 410 -10 q 113 233 181 118 q 46 490 46 347 l 46 490 q 113 747 46 633 q 295 925 181 861 q 547 989 410 989 l 547 989 q 799 925 685 989 q 980 747 914 861 q 1046 490 1046 633 l 1046 490 q 995 262 1046 365 q 854 90 944 158 l 854 90 l 1068 -167 z m 289 490 q 359 284 289 361 q 547 207 429 207 l 547 207 q 734 285 664 207 q 804 490 804 363 l 804 490 q 734 697 804 619 q 547 774 664 774 l 547 774 q 359 697 429 774 q 289 490 289 621 l 289 490 z "},"R":{"ha":906,"x_min":86,"x_max":851,"o":"m 851 0 l 583 0 l 381 368 l 324 368 l 324 0 l 86 0 l 86 975 l 485 975 q 681 935 600 975 q 803 824 763 894 q 843 668 843 754 l 843 668 q 788 494 843 571 q 626 386 733 418 l 626 386 l 851 0 z m 324 778 l 324 536 l 471 536 q 569 568 536 536 q 601 658 601 600 l 601 658 q 569 746 601 714 q 471 778 536 778 l 471 778 l 324 778 z "},"S":{"ha":854,"x_min":58,"x_max":794,"o":"m 439 -10 q 247 25 332 -10 q 112 128 163 60 q 58 292 61 196 l 58 292 l 311 292 q 349 209 317 238 q 432 181 381 181 l 432 181 q 515 205 485 181 q 546 272 546 229 l 546 272 q 522 332 546 308 q 462 371 497 356 q 361 406 426 386 l 361 406 q 207 464 267 435 q 104 550 147 493 q 61 699 61 607 l 61 699 q 160 912 61 835 q 417 989 258 989 l 417 989 q 676 912 578 989 q 782 697 775 835 l 782 697 l 525 697 q 490 772 522 744 q 408 799 458 799 l 408 799 q 339 776 365 799 q 313 710 313 753 l 313 710 q 357 636 313 663 q 496 579 401 610 l 496 579 q 649 518 590 547 q 751 433 708 489 q 794 290 794 378 l 794 290 q 752 139 794 207 q 629 31 710 71 q 439 -10 549 -10 l 439 -10 z "},"T":{"ha":821,"x_min":33,"x_max":788,"o":"m 33 975 l 788 975 l 788 785 l 529 785 l 529 0 l 292 0 l 292 785 l 33 785 l 33 975 z "},"U":{"ha":979,"x_min":82,"x_max":899,"o":"m 82 975 l 319 975 l 319 392 q 363 257 319 304 q 489 210 406 210 l 489 210 q 617 257 572 210 q 661 392 661 304 l 661 392 l 661 975 l 899 975 l 899 393 q 843 172 899 263 q 694 36 788 82 q 485 -10 600 -10 l 485 -10 q 278 35 369 -10 q 135 172 188 81 q 82 393 82 263 l 82 393 l 82 975 z "},"V":{"ha":1014,"x_min":13,"x_max":1001,"o":"m 750 975 l 1001 975 l 656 0 l 358 0 l 13 975 l 265 975 l 507 239 l 750 975 z "},"W":{"ha":1461,"x_min":35,"x_max":1428,"o":"m 1172 975 l 1428 975 l 1174 0 l 886 0 l 731 642 l 569 0 l 282 0 l 35 975 l 289 975 l 429 265 l 603 975 l 864 975 l 1031 265 l 1172 975 z "},"X":{"ha":993,"x_min":33,"x_max":960,"o":"m 960 0 l 683 0 l 485 299 l 310 0 l 40 0 l 353 496 l 33 975 l 310 975 l 506 681 l 678 975 l 947 975 l 638 483 l 960 0 z "},"Y":{"ha":932,"x_min":10,"x_max":922,"o":"m 656 975 l 922 975 l 585 322 l 585 0 l 347 0 l 347 322 l 10 975 l 279 975 l 468 567 l 656 975 z "},"Z":{"ha":828,"x_min":69,"x_max":758,"o":"m 758 794 l 339 194 l 758 194 l 758 0 l 69 0 l 69 181 l 486 781 l 69 781 l 69 975 l 758 975 l 758 794 z "},"a":{"ha":943,"x_min":39,"x_max":857,"o":"m 39 389 q 84 599 39 508 q 207 738 129 689 q 381 786 285 786 l 381 786 q 524 753 463 786 q 619 665 586 719 l 619 665 l 619 775 l 857 775 l 857 0 l 619 0 l 619 110 q 523 22 585 56 q 379 -11 461 -11 l 379 -11 q 207 38 285 -11 q 84 178 129 88 q 39 389 39 269 l 39 389 z m 619 388 q 570 528 619 476 q 450 579 521 579 l 450 579 q 330 528 379 579 q 281 389 281 478 l 281 389 q 330 248 281 300 q 450 196 379 196 l 450 196 q 570 247 521 196 q 619 388 619 299 l 619 388 z "},"b":{"ha":943,"x_min":86,"x_max":904,"o":"m 324 665 q 419 753 357 719 q 563 786 482 786 l 563 786 q 736 738 658 786 q 859 599 814 689 q 904 389 904 508 l 904 389 q 859 178 904 269 q 736 38 814 88 q 563 -11 658 -11 l 563 -11 q 419 22 481 -11 q 324 108 358 54 l 324 108 l 324 0 l 86 0 l 86 1028 l 324 1028 l 324 665 z m 663 389 q 613 528 663 478 q 492 579 564 579 l 492 579 q 372 528 421 579 q 322 388 322 476 l 322 388 q 372 247 322 299 q 492 196 421 196 l 492 196 q 613 248 563 196 q 663 389 663 300 l 663 389 z "},"c":{"ha":840,"x_min":39,"x_max":800,"o":"m 39 388 q 88 599 39 508 q 226 738 138 689 q 428 786 314 786 l 428 786 q 672 710 574 786 q 800 494 769 633 l 800 494 l 547 494 q 424 583 515 583 l 424 583 q 319 533 358 583 q 281 388 281 482 l 281 388 q 319 242 281 293 q 424 192 358 192 l 424 192 q 547 281 515 192 l 547 281 l 800 281 q 671 67 769 144 q 428 -11 572 -11 l 428 -11 q 226 38 314 -11 q 88 176 138 86 q 39 388 39 267 l 39 388 z "},"d":{"ha":943,"x_min":39,"x_max":857,"o":"m 39 389 q 84 599 39 508 q 207 738 129 689 q 381 786 285 786 l 381 786 q 520 754 457 786 q 619 668 583 722 l 619 668 l 619 1028 l 857 1028 l 857 0 l 619 0 l 619 111 q 524 22 586 56 q 381 -11 463 -11 l 381 -11 q 207 38 285 -11 q 84 178 129 88 q 39 389 39 269 l 39 389 z m 619 388 q 570 528 619 476 q 450 579 521 579 l 450 579 q 330 528 379 579 q 281 389 281 478 l 281 389 q 330 248 281 300 q 450 196 379 196 l 450 196 q 570 247 521 196 q 619 388 619 299 l 619 388 z "},"e":{"ha":856,"x_min":39,"x_max":817,"o":"m 817 400 q 813 331 817 367 l 813 331 l 275 331 q 322 220 281 258 q 422 182 363 182 l 422 182 q 546 257 511 182 l 546 257 l 799 257 q 728 119 779 181 q 601 24 678 58 q 431 -11 525 -11 l 431 -11 q 228 38 317 -11 q 89 176 139 86 q 39 388 39 267 l 39 388 q 88 599 39 508 q 226 738 138 689 q 431 786 315 786 l 431 786 q 631 739 543 786 q 767 604 718 692 q 817 400 817 517 l 817 400 z m 276 463 l 574 463 q 532 560 574 524 q 428 596 490 596 l 428 596 q 327 561 368 596 q 276 463 286 526 l 276 463 z "},"f":{"ha":500,"x_min":24,"x_max":475,"o":"m 475 775 l 475 578 l 347 578 l 347 0 l 110 0 l 110 578 l 24 578 l 24 775 l 110 775 l 110 797 q 192 1015 110 940 q 432 1089 274 1089 l 432 1089 q 471 1088 458 1089 l 471 1088 l 471 886 q 375 867 403 890 q 347 782 347 843 l 347 782 l 347 775 l 475 775 z "},"g":{"ha":943,"x_min":39,"x_max":857,"o":"m 381 786 q 524 753 463 786 q 619 665 586 719 l 619 665 l 619 775 l 857 775 l 857 1 q 815 -192 857 -106 q 685 -331 772 -279 q 469 -382 599 -382 l 469 -382 q 190 -301 297 -382 q 68 -81 83 -219 l 68 -81 l 303 -81 q 356 -151 314 -125 q 458 -176 397 -176 l 458 -176 q 576 -134 532 -176 q 619 1 619 -92 l 619 1 l 619 111 q 524 23 585 57 q 381 -11 463 -11 l 381 -11 q 207 38 285 -11 q 84 178 129 88 q 39 389 39 269 l 39 389 q 84 599 39 508 q 207 738 129 689 q 381 786 285 786 l 381 786 z m 619 388 q 570 528 619 476 q 450 579 521 579 l 450 579 q 330 528 379 579 q 281 389 281 478 l 281 389 q 330 248 281 300 q 450 196 379 196 l 450 196 q 570 247 521 196 q 619 388 619 299 l 619 388 z "},"h":{"ha":936,"x_min":86,"x_max":857,"o":"m 563 783 q 776 695 696 783 q 857 453 857 607 l 857 453 l 857 0 l 621 0 l 621 421 q 581 542 621 499 q 472 585 540 585 l 472 585 q 364 542 404 585 q 324 421 324 499 l 324 421 l 324 0 l 86 0 l 86 1028 l 324 1028 l 324 671 q 422 753 360 722 q 563 783 485 783 l 563 783 z "},"i":{"ha":410,"x_min":64,"x_max":346,"o":"m 206 856 q 103 892 143 856 q 64 983 64 929 l 64 983 q 103 1076 64 1039 q 206 1113 143 1113 l 206 1113 q 306 1076 267 1113 q 346 983 346 1039 l 346 983 q 306 892 346 929 q 206 856 267 856 l 206 856 z m 86 775 l 324 775 l 324 0 l 86 0 l 86 775 z "},"j":{"ha":408,"x_min":-43,"x_max":344,"o":"m 204 856 q 102 892 142 856 q 63 983 63 929 l 63 983 q 102 1076 63 1039 q 204 1113 142 1113 l 204 1113 q 305 1076 265 1113 q 344 983 344 1039 l 344 983 q 305 892 344 929 q 204 856 265 856 l 204 856 z m 324 775 l 324 -100 q 251 -306 324 -243 q 50 -369 179 -369 l 50 -369 l -43 -369 l -43 -168 l 14 -168 q 69 -153 53 -168 q 86 -103 86 -137 l 86 -103 l 86 775 l 324 775 z "},"k":{"ha":858,"x_min":86,"x_max":854,"o":"m 854 0 l 560 0 l 324 325 l 324 0 l 86 0 l 86 1028 l 324 1028 l 324 460 l 558 775 l 851 775 l 529 386 l 854 0 z "},"l":{"ha":410,"x_min":86,"x_max":324,"o":"m 86 1028 l 324 1028 l 324 0 l 86 0 l 86 1028 z "},"m":{"ha":1471,"x_min":86,"x_max":1390,"o":"m 1075 783 q 1305 696 1219 783 q 1390 453 1390 608 l 1390 453 l 1390 0 l 1154 0 l 1154 421 q 1115 537 1154 496 q 1006 578 1075 578 l 1006 578 q 897 537 936 578 q 857 421 857 496 l 857 421 l 857 0 l 621 0 l 621 421 q 581 537 621 496 q 472 578 542 578 l 472 578 q 363 537 403 578 q 324 421 324 496 l 324 421 l 324 0 l 86 0 l 86 775 l 324 775 l 324 678 q 418 755 360 726 q 550 783 476 783 l 550 783 q 706 746 638 783 q 814 639 775 708 l 814 639 q 924 743 854 703 q 1075 783 993 783 l 1075 783 z "},"n":{"ha":936,"x_min":86,"x_max":857,"o":"m 558 783 q 776 695 694 783 q 857 453 857 607 l 857 453 l 857 0 l 621 0 l 621 421 q 581 542 621 499 q 472 585 540 585 l 472 585 q 364 542 404 585 q 324 421 324 499 l 324 421 l 324 0 l 86 0 l 86 775 l 324 775 l 324 672 q 421 753 360 724 q 558 783 482 783 l 558 783 z "},"o":{"ha":885,"x_min":39,"x_max":844,"o":"m 439 -11 q 234 38 325 -11 q 91 176 143 86 q 39 388 39 267 l 39 388 q 92 598 39 507 q 236 738 144 689 q 442 786 328 786 l 442 786 q 647 738 556 786 q 792 598 739 689 q 844 388 844 507 l 844 388 q 791 177 844 268 q 645 38 738 86 q 439 -11 553 -11 l 439 -11 z m 439 194 q 555 244 507 194 q 603 388 603 294 l 603 388 q 556 531 603 481 q 442 581 510 581 l 442 581 q 326 531 372 581 q 281 388 281 482 l 281 388 q 326 244 281 294 q 439 194 371 194 l 439 194 z "},"p":{"ha":943,"x_min":86,"x_max":904,"o":"m 324 665 q 419 753 358 719 q 563 786 481 786 l 563 786 q 736 738 658 786 q 859 599 814 689 q 904 389 904 508 l 904 389 q 859 178 904 269 q 736 38 814 88 q 563 -11 658 -11 l 563 -11 q 420 22 482 -11 q 324 108 358 56 l 324 108 l 324 -369 l 86 -369 l 86 775 l 324 775 l 324 665 z m 663 389 q 613 528 663 478 q 492 579 564 579 l 492 579 q 372 528 421 579 q 322 388 322 476 l 322 388 q 372 247 322 299 q 492 196 421 196 l 492 196 q 613 248 563 196 q 663 389 663 300 l 663 389 z "},"q":{"ha":943,"x_min":39,"x_max":857,"o":"m 39 386 q 87 592 39 501 q 216 733 135 682 q 393 783 297 783 l 393 783 q 525 758 467 783 q 619 686 583 732 l 619 686 l 619 775 l 857 775 l 857 -369 l 619 -369 l 619 97 q 522 19 579 49 q 390 -10 464 -10 l 390 -10 q 215 40 296 -10 q 87 181 135 90 q 39 386 39 271 l 39 386 z m 619 388 q 595 492 619 450 q 532 556 571 535 q 450 578 493 578 l 450 578 q 369 556 408 578 q 306 492 331 535 q 281 386 281 449 l 281 386 q 306 281 281 324 q 369 217 331 239 q 450 196 408 196 l 450 196 q 531 217 492 196 q 595 282 571 239 q 619 388 619 325 l 619 388 z "},"r":{"ha":594,"x_min":86,"x_max":567,"o":"m 324 646 q 428 747 365 710 q 567 783 490 783 l 567 783 l 567 532 l 501 532 q 368 494 413 532 q 324 360 324 456 l 324 360 l 324 0 l 86 0 l 86 775 l 324 775 l 324 646 z "},"s":{"ha":775,"x_min":44,"x_max":715,"o":"m 401 -11 q 221 24 300 -11 q 96 119 142 58 q 44 254 50 179 l 44 254 l 279 254 q 317 189 283 214 q 399 164 350 164 l 399 164 q 467 181 443 164 q 492 226 492 199 l 492 226 q 457 276 492 260 q 344 311 422 292 l 344 311 q 206 352 261 331 q 110 420 150 374 q 69 546 69 467 l 69 546 q 106 667 69 613 q 215 754 143 722 q 385 786 286 786 l 385 786 q 615 714 531 786 q 711 522 699 642 l 711 522 l 492 522 q 456 586 486 563 q 378 610 426 610 l 378 610 q 314 594 336 610 q 292 550 292 578 l 292 550 q 327 500 292 517 q 438 467 363 483 l 438 467 q 578 423 524 444 q 673 353 632 401 q 715 225 714 306 l 715 225 q 677 103 715 157 q 567 19 639 50 q 401 -11 496 -11 l 401 -11 z "},"t":{"ha":564,"x_min":29,"x_max":518,"o":"m 433 201 l 518 201 l 518 0 l 397 0 q 196 63 268 0 q 124 269 124 126 l 124 269 l 124 578 l 29 578 l 29 775 l 124 775 l 124 964 l 361 964 l 361 775 l 517 775 l 517 578 l 361 578 l 361 267 q 378 217 361 232 q 433 201 394 201 l 433 201 z "},"u":{"ha":936,"x_min":79,"x_max":851,"o":"m 614 775 l 851 775 l 851 0 l 614 0 l 614 106 q 516 23 578 54 q 379 -8 454 -8 l 379 -8 q 222 31 290 -8 q 117 146 154 71 q 79 322 79 221 l 79 322 l 79 775 l 315 775 l 315 354 q 356 233 315 276 q 464 190 396 190 l 464 190 q 574 233 533 190 q 614 354 614 276 l 614 354 l 614 775 z "},"v":{"ha":869,"x_min":13,"x_max":856,"o":"m 267 775 l 435 222 l 603 775 l 856 775 l 581 0 l 288 0 l 13 775 l 267 775 z "},"w":{"ha":1203,"x_min":6,"x_max":1199,"o":"m 975 775 l 1199 775 l 989 0 l 726 0 l 604 503 l 478 0 l 217 0 l 6 775 l 243 775 l 353 221 l 483 775 l 735 775 l 867 224 l 975 775 z "},"x":{"ha":817,"x_min":7,"x_max":811,"o":"m 811 0 l 544 0 l 396 215 l 271 0 l 14 0 l 269 396 l 7 775 l 274 775 l 422 561 l 547 775 l 804 775 l 544 385 l 811 0 z "},"y":{"ha":878,"x_min":-1,"x_max":878,"o":"m 621 775 l 878 775 l 392 -368 l 136 -368 l 314 26 l -1 775 l 264 775 l 443 290 l 621 775 z "},"z":{"ha":689,"x_min":43,"x_max":644,"o":"m 638 586 l 308 196 l 644 196 l 644 0 l 43 0 l 43 189 l 365 579 l 46 579 l 46 775 l 638 775 l 638 586 z "}," ":{"ha":294,"x_min":0,"x_max":0,"o":""},".":{"ha":392,"x_min":56,"x_max":338,"o":"m 197 -11 q 95 26 135 -11 q 56 117 56 63 l 56 117 q 95 210 56 172 q 197 247 135 247 l 197 247 q 298 210 258 247 q 338 117 338 172 l 338 117 q 298 26 338 63 q 197 -11 258 -11 l 197 -11 z "},",":{"ha":399,"x_min":36,"x_max":342,"o":"m 117 219 l 342 219 l 188 -179 l 36 -179 l 117 219 z "},"!":{"ha":544,"x_min":132,"x_max":414,"o":"m 142 1010 l 399 1010 l 371 344 l 169 344 l 142 1010 z m 274 -11 q 172 26 211 -11 q 132 117 132 63 l 132 117 q 172 210 132 172 q 274 247 211 247 l 274 247 q 374 210 335 247 q 414 117 414 172 l 414 117 q 374 26 414 63 q 274 -11 335 -11 l 274 -11 z "},"?":{"ha":747,"x_min":39,"x_max":699,"o":"m 371 1029 q 609 951 519 1029 q 699 732 699 874 l 699 732 q 613 528 699 601 q 388 454 528 456 l 388 454 l 381 350 l 172 350 l 165 608 l 249 608 q 412 635 356 608 q 468 731 468 661 l 468 731 q 442 807 468 779 q 368 835 415 835 l 368 835 q 290 806 318 835 q 263 729 263 778 l 263 729 l 39 729 q 74 882 36 814 q 188 990 113 950 q 371 1029 264 1029 l 371 1029 z m 279 -11 q 177 26 217 -11 q 138 117 138 63 l 138 117 q 177 210 138 172 q 279 247 217 247 l 279 247 q 380 210 340 247 q 419 117 419 172 l 419 117 q 380 26 419 63 q 279 -11 340 -11 l 279 -11 z "},"&":{"ha":1108,"x_min":50,"x_max":1108,"o":"m 1108 0 l 832 0 l 742 88 q 419 -15 607 -15 l 419 -15 q 224 22 307 -15 q 95 126 140 58 q 50 283 50 193 l 50 283 q 99 449 50 375 q 247 571 149 524 l 247 571 q 196 656 211 615 q 181 746 181 697 l 181 746 q 217 872 181 815 q 322 962 253 929 q 485 994 390 994 l 485 994 q 647 960 581 994 q 747 867 714 925 q 778 739 781 808 l 778 739 l 554 739 q 535 797 556 776 q 482 817 515 817 l 482 817 q 426 797 449 817 q 404 747 404 778 l 404 747 q 423 686 404 718 q 482 613 442 654 l 482 613 l 719 381 q 727 397 722 388 q 738 419 732 407 l 738 419 l 789 507 l 1026 507 l 960 386 q 874 231 922 304 l 874 231 l 1108 0 z m 431 176 q 596 229 524 176 l 596 229 l 379 439 q 279 300 279 388 l 279 300 q 320 212 279 247 q 431 176 361 176 l 431 176 z "},"'":{"ha":307,"x_min":56,"x_max":251,"o":"m 56 1111 l 251 1111 l 233 804 l 74 804 l 56 1111 z "},"\"":{"ha":571,"x_min":56,"x_max":515,"o":"m 56 1111 l 251 1111 l 233 804 l 74 804 l 56 1111 z m 319 1111 l 515 1111 l 497 804 l 338 804 l 319 1111 z "},"-":{"ha":806,"x_min":72,"x_max":683,"o":"m 72 586 l 683 586 l 683 389 l 72 389 l 72 586 z "},":":{"ha":394,"x_min":56,"x_max":338,"o":"m 197 -11 q 95 26 135 -11 q 56 117 56 63 l 56 117 q 95 210 56 172 q 197 247 135 247 l 197 247 q 298 210 258 247 q 338 117 338 172 l 338 117 q 298 26 338 63 q 197 -11 258 -11 l 197 -11 z m 197 554 q 95 591 135 554 q 56 682 56 628 l 56 682 q 95 775 56 738 q 197 813 135 813 l 197 813 q 298 775 258 813 q 338 682 338 738 l 338 682 q 298 591 338 628 q 197 554 258 554 l 197 554 z "}}}
